<?xml version="1.0" encoding="UTF-8"?>
<svg width="200px" height="200px" viewBox="0 0 200 200" version="1.1" xmlns="http://www.w3.org/2000/svg">
    <g stroke="none" fill="none" fill-rule="evenodd">
        <g transform="translate(100, 100)" fill="#FF8E8E">
            <!-- Center flower -->
            <circle cx="0" cy="0" r="8"/>
            <g transform="rotate(0)">
                <path d="M0,-15 C10,-25 20,-25 30,-15 C20,-5 10,-5 0,-15Z"/>
            </g>
            <g transform="rotate(72)">
                <path d="M0,-15 C10,-25 20,-25 30,-15 C20,-5 10,-5 0,-15Z"/>
            </g>
            <g transform="rotate(144)">
                <path d="M0,-15 C10,-25 20,-25 30,-15 C20,-5 10,-5 0,-15Z"/>
            </g>
            <g transform="rotate(216)">
                <path d="M0,-15 C10,-25 20,-25 30,-15 C20,-5 10,-5 0,-15Z"/>
            </g>
            <g transform="rotate(288)">
                <path d="M0,-15 C10,-25 20,-25 30,-15 C20,-5 10,-5 0,-15Z"/>
            </g>
            
            <!-- Decorative swirls -->
            <path d="M40,0 C60,-20 80,-20 100,0 C80,20 60,20 40,0Z" opacity="0.6"/>
            <path d="M-40,0 C-60,-20 -80,-20 -100,0 C-80,20 -60,20 -40,0Z" opacity="0.6"/>
            <path d="M0,40 C-20,60 -20,80 0,100 C20,80 20,60 0,40Z" opacity="0.6"/>
            <path d="M0,-40 C-20,-60 -20,-80 0,-100 C20,-80 20,-60 0,-40Z" opacity="0.6"/>
        </g>
    </g>
</svg> 